{
  "accessors": [
    {
      "bufferView": 2,
      "componentType": 5126,
      "count": 61971,
      "max": [
        37.779811859130859,
        21.902082443237305,
        13.236349105834961
      ],
      "min": [
        -40.209705352783203,
        -15.984129905700684,
        -14.385757446289062
      ],
      "type": "VEC3"
    },
    {
      "bufferView": 2,
      "byteOffset": 743652,
      "componentType": 5126,
      "count": 61971,
      "max": [
        0.99996030330657959,
        0.99993276596069336,
        0.99999809265136719
      ],
      "min": [
        -0.99999141693115234,
        -0.9999699592590332,
        -0.9999995231628418
      ],
      "type": "VEC3"
    },
    {
      "bufferView": 3,
      "componentType": 5126,
      "count": 61971,
      "max": [
        0.99999970197677612,
        0.99994492530822754,
        0.99993348121643066,
        1
      ],
      "min": [
        -0.99997913837432861,
        -0.99999028444290161,
        -0.99997258186340332,
        -1
      ],
      "type": "VEC4"
    },
    {
      "bufferView": 1,
      "componentType": 5126,
      "count": 61971,
      "max": [
        0.96987897157669067,
        0.99929201602935791
      ],
      "min": [
        3.5000000934815034e-05,
        0.00020999999833293259
      ],
      "type": "VEC2"
    },
    {
      "bufferView": 0,
      "componentType": 5125,
      "count": 357732,
      "max": [
        61970
      ],
      "min": [
        0
      ],
      "type": "SCALAR"
    }
  ],
  "asset": {
    "extras": {
      "author": "Cleveland Museum of Art (https://sketchfab.com/clevelandart)",
      "license": "CC0-1.0 (http://creativecommons.org/publicdomain/zero/1.0/)",
      "source": "https://sketchfab.com/3d-models/201715-headrest-with-three-lions-31a9a4ae69834c42a4869d0610f32515",
      "title": "2017.15 Headrest With Three Lions"
    },
    "generator": "Sketchfab-7.80.0",
    "version": "2.0"
  },
  "bufferViews": [
    {
      "buffer": 0,
      "byteLength": 1430928,
      "byteOffset": 0,
      "name": "floatBufferViews",
      "target": 34963
    },
    {
      "buffer": 0,
      "byteLength": 495768,
      "byteOffset": 1430928,
      "byteStride": 8,
      "name": "floatBufferViews",
      "target": 34962
    },
    {
      "buffer": 0,
      "byteLength": 1487304,
      "byteOffset": 1926696,
      "byteStride": 12,
      "name": "floatBufferViews",
      "target": 34962
    },
    {
      "buffer": 0,
      "byteLength": 991536,
      "byteOffset": 3414000,
      "byteStride": 16,
      "name": "floatBufferViews",
      "target": 34962
    }
  ],
  "buffers": [
    {
      "byteLength": 4405536,
      "uri": "scene.bin"
    }
  ],
  "images": [
    {
      "uri": "textures/2017.15_Headrest_with_Three_Lions_100K.001_baseColor.png"
    },
    {
      "uri": "textures/2017.15_Headrest_with_Three_Lions_100K.001_metallicRoughness.png"
    },
    {
      "uri": "textures/2017.15_Headrest_with_Three_Lions_100K.001_normal.png"
    }
  ],
  "materials": [
    {
      "doubleSided": true,
      "emissiveFactor": [
        0.20000000000000001,
        0.20000000000000001,
        0.20000000000000001
      ],
      "emissiveTexture": {
        "index": 0,
        "texCoord": 0
      },
      "name": "2017.15_Headrest_with_Three_Lions_100K.001",
      "normalTexture": {
        "index": 2,
        "scale": 0.69999999999999996,
        "texCoord": 0
      },
      "occlusionTexture": {
        "index": 1,
        "strength": 1,
        "texCoord": 0
      },
      "pbrMetallicRoughness": {
        "baseColorFactor": [
          1,
          1,
          1,
          1
        ],
        "baseColorTexture": {
          "index": 0,
          "texCoord": 0
        },
        "metallicFactor": 0.2212271341,
        "metallicRoughnessTexture": {
          "index": 1,
          "texCoord": 0
        },
        "roughnessFactor": 0.25171493900000003
      }
    }
  ],
  "meshes": [
    {
      "primitives": [
        {
          "attributes": {
            "NORMAL": 1,
            "POSITION": 0,
            "TANGENT": 2,
            "TEXCOORD_0": 3
          },
          "indices": 4,
          "material": 0,
          "mode": 4
        }
      ]
    }
  ],
  "nodes": [
    {
      "children": [
        1
      ],
      "name": "RootNode (gltf orientation matrix)",
      "rotation": [
        -0.70710678118654746,
        -0,
        -0,
        0.70710678118654757
      ]
    },
    {
      "children": [
        2
      ],
      "name": "RootNode (model correction matrix)"
    },
    {
      "children": [
        3
      ],
      "name": "2017.15 Headrest with Three Lions 100K.obj.cleaner.materialmerger.gles"
    },
    {
      "mesh": 0,
      "name": ""
    }
  ],
  "samplers": [
    {
      "magFilter": 9729,
      "minFilter": 9987,
      "wrapS": 10497,
      "wrapT": 10497
    }
  ],
  "scene": 0,
  "scenes": [
    {
      "name": "OSG_Scene",
      "nodes": [
        0
      ]
    }
  ],
  "textures": [
    {
      "sampler": 0,
      "source": 0
    },
    {
      "sampler": 0,
      "source": 1
    },
    {
      "sampler": 0,
      "source": 2
    }
  ]
}

